<?xml version="1.0" standalone="no"?>
<!DOCTYPE svg PUBLIC "-//W3C//DTD SVG 20010904//EN"
 "http://www.w3.org/TR/2001/REC-SVG-20010904/DTD/svg10.dtd">
<svg version="1.0" xmlns="http://www.w3.org/2000/svg"
 width="2838.000000pt" height="785.000000pt" viewBox="0 0 2838.000000 785.000000"
 preserveAspectRatio="xMidYMid meet">

<g transform="translate(0.000000,785.000000) scale(0.100000,-0.100000)"
fill="#000000" stroke="none">
<path d="M24095 7120 c-1252 -102 -2453 -589 -3405 -1380 -163 -136 -499 -473
-624 -626 -450 -553 -707 -1107 -787 -1694 -17 -124 -17 -459 0 -575 89 -609
384 -1098 886 -1470 450 -334 997 -534 1695 -622 206 -26 865 -26 1085 0 439
51 829 136 1225 267 191 62 525 188 518 195 -2 2 -50 -5 -108 -15 -204 -35
-333 -44 -600 -44 -285 0 -452 15 -700 60 -156 28 -381 82 -394 94 -4 4 32 11
80 15 244 18 441 36 554 51 542 68 1065 208 1645 439 450 179 644 273 870 422
523 346 884 683 1128 1053 90 137 233 431 290 595 161 470 190 949 81 1379
-27 111 -76 246 -85 240 -5 -3 -9 -22 -9 -43 0 -62 -37 -256 -75 -394 -163
-596 -552 -1261 -1102 -1887 -152 -173 -512 -550 -525 -550 -6 0 1 15 14 33
590 777 932 1616 977 2393 43 757 -263 1298 -829 1467 -149 45 -305 66 -585
80 l-50 2 50 23 c78 36 284 109 402 142 83 24 290 67 332 70 14 1 -123 54
-238 91 -241 78 -533 140 -831 175 -159 18 -717 27 -885 14z m1525 -709 c238
-70 393 -233 449 -471 22 -91 40 -360 25 -360 -5 0 -23 31 -41 68 -106 223
-327 354 -708 418 -137 23 -428 23 -590 0 -337 -48 -533 -115 -1060 -361 -113
-52 -109 -45 40 70 448 348 927 568 1435 659 14 2 104 3 200 1 145 -2 188 -6
250 -24z m-2537 -1349 c74 -97 140 -187 147 -198 11 -18 1 -51 -76 -262 l-89
-242 -267 0 c-148 0 -268 1 -268 3 0 2 20 59 45 126 25 68 42 128 38 134 -3 7
-19 29 -36 50 l-29 37 -676 -1 -677 0 -70 -48 -70 -48 -251 -689 -251 -689 31
-37 31 -36 695 -1 695 0 59 42 59 42 77 213 77 212 -393 0 c-217 0 -394 1
-394 3 0 4 167 463 181 500 l11 27 663 0 662 0 -220 -605 -220 -605 -278 -180
-279 -180 -892 1 -893 0 -145 180 c-80 98 -144 184 -143 191 9 47 674 1853
685 1859 7 4 136 91 287 193 l275 186 883 0 883 0 133 -178z m2950 0 c74 -97
140 -186 147 -198 11 -17 -30 -135 -325 -947 l-338 -927 -278 -180 -279 -180
-892 1 -893 0 -145 180 c-80 98 -144 184 -143 191 9 47 674 1853 685 1859 7 4
136 91 287 193 l275 186 883 0 883 0 133 -178z"/>
<path d="M24090 4668 c-30 -22 -61 -43 -67 -47 -10 -5 -487 -1289 -510 -1371
-2 -9 9 -32 24 -52 l28 -37 693 -1 692 0 63 39 62 40 243 668 c133 367 245
678 248 690 4 15 -5 36 -28 67 l-33 45 -680 0 -680 -1 -55 -40z"/>
<path d="M710 3925 l0 -1085 220 0 220 0 0 305 0 305 334 0 335 0 268 -305
268 -305 294 0 293 0 -64 73 c-35 39 -156 176 -268 302 l-205 230 76 5 75 5
172 145 172 145 0 472 0 472 -176 160 -177 161 -918 0 -919 0 0 -1085z m1708
609 l42 -36 0 -276 0 -277 -34 -27 -35 -28 -620 0 -621 0 0 340 0 340 613 0
613 0 42 -36z"/>
<path d="M3710 3943 c-304 -588 -557 -1076 -562 -1085 -8 -17 6 -18 239 -18
l248 1 125 242 126 242 726 3 726 2 128 -245 128 -245 248 0 247 0 -92 178
c-51 98 -303 586 -562 1085 l-470 907 -351 0 -351 0 -553 -1067z m1192 229
l208 -397 -251 -3 c-138 -1 -360 -1 -494 0 l-244 3 205 398 206 397 81 0 82 0
207 -398z"/>
<path d="M6496 4849 l-176 -160 0 -322 0 -322 166 -173 166 -172 664 0 664 0
45 -41 45 -42 0 -138 0 -138 -37 -30 -38 -31 -837 0 -838 0 0 -220 0 -220 918
0 919 0 176 148 176 147 -2 339 -2 340 -181 167 -180 166 -655 -5 -655 -5 -37
43 -37 44 0 137 0 137 42 36 41 36 831 2 831 3 3 218 2 217 -918 0 -919 0
-177 -161z"/>
<path d="M8770 4790 l0 -220 435 0 435 0 0 -865 0 -865 220 0 220 0 0 865 0
865 435 0 435 0 0 220 0 220 -1090 0 -1090 0 0 -220z"/>
<path d="M11260 3925 l0 -1085 220 0 220 0 0 305 0 305 335 0 334 0 251 -284
c137 -156 258 -293 267 -305 18 -21 22 -21 310 -19 l292 3 -266 300 -266 300
75 5 74 5 172 144 172 145 0 472 0 473 -176 161 -175 160 -920 0 -919 0 0
-1085z m1710 609 l40 -36 0 -277 0 -276 -34 -27 -35 -28 -620 0 -621 0 0 340
0 340 615 0 615 0 40 -36z"/>
<path d="M13900 3925 l0 -1085 990 0 990 0 -2 218 -3 217 -767 3 -768 2 0 215
0 215 480 0 480 0 0 220 0 220 -480 0 -480 0 0 210 0 210 763 2 762 3 3 218 2
217 -985 0 -985 0 0 -1085z"/>
<path d="M16411 4848 l-181 -162 1 -775 0 -776 176 -147 175 -148 747 0 746 0
178 150 177 151 0 767 c0 422 -4 772 -8 778 -4 6 -85 81 -181 167 l-174 157
-738 0 -738 0 -180 -162z m1533 -319 l46 -41 0 -573 0 -573 -39 -31 -39 -31
-584 0 -583 0 -38 31 -37 30 0 572 0 571 42 43 42 43 572 0 571 0 47 -41z"/>
<path d="M965 2117 c-155 -52 -243 -166 -253 -328 -10 -166 62 -290 208 -358
49 -23 67 -26 165 -26 99 0 116 3 165 27 30 14 69 38 85 51 l30 26 -47 47
c-44 44 -48 47 -65 32 -43 -38 -88 -52 -163 -52 -61 0 -83 4 -120 24 -149 83
-152 324 -5 407 79 44 197 38 266 -13 l33 -24 46 45 45 45 -30 26 c-63 53
-133 78 -230 81 -55 2 -105 -2 -130 -10z"/>
<path d="M1691 2109 c-53 -17 -76 -32 -127 -83 -52 -53 -65 -73 -83 -130 -12
-39 -21 -95 -21 -131 0 -36 9 -92 21 -131 18 -57 31 -77 83 -130 54 -54 72
-65 135 -84 58 -18 90 -22 159 -18 151 7 261 77 319 202 24 54 28 73 28 161 0
88 -4 107 -28 161 -36 76 -94 135 -172 171 -83 38 -219 43 -314 12z m261 -141
c23 -12 56 -43 73 -66 28 -41 30 -49 30 -137 0 -88 -2 -96 -30 -137 -46 -65
-104 -93 -190 -93 -143 1 -227 87 -227 230 0 116 53 190 162 226 43 14 136 3
182 -23z"/>
<path d="M4145 2117 c-155 -52 -243 -166 -253 -328 -10 -166 62 -290 208 -358
49 -23 67 -26 165 -26 99 0 116 3 165 27 30 14 69 38 85 51 l30 26 -47 47
c-44 44 -48 47 -65 32 -43 -38 -88 -52 -163 -52 -61 0 -83 4 -120 24 -149 83
-152 324 -5 407 79 44 197 38 266 -13 l33 -24 46 45 45 45 -30 26 c-63 53
-133 78 -230 81 -55 2 -105 -2 -130 -10z"/>
<path d="M12685 2116 c-95 -30 -146 -76 -166 -148 -13 -48 1 -115 32 -159 30
-42 112 -77 223 -94 134 -22 176 -45 176 -97 0 -51 -63 -88 -150 -88 -48 0
-148 27 -188 51 -18 10 -36 19 -40 19 -4 0 -22 -23 -41 -50 -33 -49 -34 -51
-15 -65 101 -77 285 -106 417 -65 190 59 223 282 55 364 -47 23 -112 40 -228
60 -19 3 -50 15 -68 26 -29 18 -33 25 -30 57 5 58 41 78 141 78 73 0 88 -3
138 -31 l56 -31 32 46 c17 26 31 51 31 57 0 13 -94 56 -155 73 -53 14 -170 13
-220 -3z"/>
<path d="M2380 1765 l0 -355 77 0 76 0 -6 230 c-4 127 -5 230 -3 230 2 0 81
-103 176 -230 l172 -230 64 0 64 0 0 355 0 355 -70 0 -70 0 -2 -231 -3 -232
-172 232 -172 231 -66 0 -65 0 0 -355z"/>
<path d="M3210 1765 l0 -355 270 0 270 0 0 60 0 60 -200 0 -200 0 0 90 0 90
190 0 191 0 -3 58 -3 57 -187 3 -188 2 0 85 0 85 198 2 197 3 3 58 3 57 -271
0 -270 0 0 -355z"/>
<path d="M4620 2055 l0 -65 115 0 115 0 0 -290 0 -290 70 0 70 0 0 290 0 290
115 0 115 0 0 65 0 65 -300 0 -300 0 0 -65z"/>
<path d="M5360 1765 l0 -355 75 0 75 0 0 355 0 355 -75 0 -75 0 0 -355z"/>
<path d="M5655 2083 c9 -21 75 -181 147 -355 l132 -318 76 0 77 0 145 353 146
352 -76 3 c-53 2 -78 -1 -83 -10 -5 -7 -52 -126 -106 -265 -54 -139 -100 -253
-103 -253 -4 0 -12 17 -19 38 -8 20 -54 139 -103 265 l-89 227 -80 0 -79 0 15
-37z"/>
<path d="M6510 1765 l0 -355 75 0 75 0 0 355 0 355 -75 0 -75 0 0 -355z"/>
<path d="M6870 1765 l0 -357 198 4 c225 5 254 12 338 90 57 52 90 117 103 200
21 126 -18 248 -103 326 -84 78 -113 85 -338 90 l-198 4 0 -357z m347 213
c151 -37 205 -248 96 -369 -44 -49 -107 -69 -215 -69 l-78 0 0 225 0 225 76 0
c41 0 96 -5 121 -12z"/>
<path d="M7740 1774 c-85 -191 -156 -351 -158 -355 -2 -5 32 -9 75 -9 l78 0
29 70 28 70 182 0 181 0 29 -70 28 -70 79 0 79 0 -12 29 c-7 17 -78 176 -158
355 l-145 326 -80 0 -80 0 -155 -346z m295 56 c31 -74 59 -141 62 -147 4 -10
-24 -13 -122 -13 -98 0 -126 3 -122 13 26 67 120 287 122 285 1 -2 28 -64 60
-138z"/>
<path d="M8500 1765 l0 -357 198 4 c225 5 254 12 338 90 57 52 90 117 103 200
21 126 -18 248 -103 326 -84 78 -113 85 -338 90 l-198 4 0 -357z m347 213
c151 -37 205 -248 96 -369 -44 -49 -107 -69 -215 -69 l-78 0 0 225 0 225 76 0
c41 0 96 -5 121 -12z"/>
<path d="M9650 1774 c-85 -191 -156 -351 -158 -355 -2 -5 32 -9 75 -9 l78 0
29 70 28 70 182 0 181 0 29 -70 28 -70 79 0 79 0 -12 29 c-7 17 -78 176 -158
355 l-145 326 -80 0 -80 0 -155 -346z m295 56 c31 -74 59 -141 62 -147 4 -10
-24 -13 -122 -13 -98 0 -126 3 -122 13 26 67 120 287 122 285 1 -2 28 -64 60
-138z"/>
<path d="M10410 1765 l0 -355 255 0 255 0 0 65 0 65 -180 0 -180 0 0 290 0
290 -75 0 -75 0 0 -355z"/>
<path d="M11350 1765 l0 -355 75 0 75 0 0 355 0 355 -75 0 -75 0 0 -355z"/>
<path d="M11710 1765 l0 -355 77 0 76 0 -6 230 c-4 127 -5 230 -3 230 2 0 81
-103 176 -230 l172 -230 64 0 64 0 0 355 0 355 -70 0 -70 0 -2 -231 -3 -232
-172 232 -172 231 -66 0 -65 0 0 -355z"/>
<path d="M13190 2055 l0 -65 115 0 115 0 0 -290 0 -290 70 0 70 0 0 290 0 290
115 0 115 0 0 65 0 65 -300 0 -300 0 0 -65z"/>
<path d="M13940 1774 c-85 -191 -156 -351 -158 -355 -2 -5 32 -9 75 -9 l78 0
29 70 28 70 182 0 181 0 29 -70 28 -70 79 0 79 0 -12 29 c-7 17 -78 176 -158
355 l-145 326 -80 0 -80 0 -155 -346z m295 56 c31 -74 59 -141 62 -147 4 -10
-24 -13 -122 -13 -98 0 -126 3 -122 13 26 67 120 287 122 285 1 -2 28 -64 60
-138z"/>
<path d="M14700 1765 l0 -355 77 0 76 0 -6 230 c-4 127 -5 230 -3 230 2 0 81
-103 176 -230 l172 -230 64 0 64 0 0 355 0 355 -70 0 -70 0 -2 -231 -3 -232
-172 232 -172 231 -66 0 -65 0 0 -355z"/>
<path d="M15470 2055 l0 -65 115 0 115 0 0 -290 0 -290 70 0 70 0 0 290 0 290
115 0 115 0 0 65 0 65 -300 0 -300 0 0 -65z"/>
<path d="M16210 1765 l0 -355 270 0 270 0 0 60 0 60 -200 0 -200 0 0 90 0 90
190 0 191 0 -3 58 -3 57 -187 3 -188 2 0 85 0 85 198 2 197 3 3 58 3 57 -271
0 -270 0 0 -355z"/>
</g>
</svg>
