<?xml version="1.0" standalone="no"?>
<!DOCTYPE svg PUBLIC "-//W3C//DTD SVG 20010904//EN"
 "http://www.w3.org/TR/2001/REC-SVG-20010904/DTD/svg10.dtd">
<svg version="1.0" xmlns="http://www.w3.org/2000/svg"
 width="980.000000pt" height="785.000000pt" viewBox="0 0 980.000000 785.000000"
 preserveAspectRatio="xMidYMid meet">

<g transform="translate(0.000000,785.000000) scale(0.100000,-0.100000)"
fill="#ff5932" stroke="none">
<path d="M5605 7129 c-813 -44 -1684 -289 -2455 -691 -1095 -570 -1950 -1457
-2293 -2378 -83 -222 -132 -420 -163 -650 -20 -156 -15 -496 11 -635 115 -630
443 -1118 999 -1489 429 -287 979 -470 1628 -543 192 -21 717 -24 923 -5 454
42 887 132 1323 273 185 60 575 209 568 217 -3 2 -40 -3 -83 -12 -212 -42
-320 -51 -663 -50 -357 0 -441 7 -727 60 -144 26 -327 70 -351 83 -8 5 41 11
109 15 918 53 1702 261 2676 710 323 149 771 474 1089 791 272 271 399 444
546 745 192 392 281 764 280 1165 0 253 -31 444 -108 677 -38 114 -54 140 -54
86 0 -57 -29 -228 -59 -353 -156 -637 -569 -1348 -1180 -2029 -164 -183 -460
-482 -419 -423 18 26 77 109 130 185 191 271 395 635 516 927 187 446 293 898
308 1315 18 472 -114 874 -371 1133 -219 220 -508 328 -925 346 l-165 7 40 18
c195 88 606 206 716 206 16 0 29 4 29 9 0 10 -1 10 -195 77 -497 172 -1078
246 -1680 213z m1418 -718 c322 -84 487 -330 487 -724 l0 -102 -37 75 c-28 55
-59 97 -118 156 -68 69 -97 89 -185 132 -205 101 -384 136 -690 137 -422 0
-731 -78 -1235 -315 -162 -76 -196 -91 -190 -80 10 16 261 202 355 263 224
144 463 264 702 351 136 49 374 111 483 125 112 15 337 6 428 -18z m-2513
-1353 c74 -99 139 -189 144 -198 6 -14 -16 -85 -80 -259 l-88 -241 -268 0
c-147 0 -268 2 -268 4 0 3 20 60 45 127 l45 122 -36 48 -36 49 -671 0 -672 0
-75 -50 -75 -50 -247 -677 c-136 -373 -248 -685 -248 -693 0 -8 14 -29 32 -47
l32 -33 690 0 691 1 59 42 58 42 74 204 c41 112 74 207 74 212 0 5 -173 9
-391 9 -367 0 -390 1 -385 18 3 9 46 127 95 262 l89 245 666 3 666 2 -11 -27
c-6 -16 -100 -275 -210 -577 -110 -302 -206 -563 -213 -580 -11 -25 -67 -66
-288 -208 l-275 -178 -894 0 -894 1 -144 176 c-80 98 -144 184 -144 193 1 8
152 428 336 933 l334 918 284 194 284 194 890 0 890 0 135 -181z m2950 0 c74
-99 139 -188 144 -198 6 -13 -82 -265 -324 -932 -183 -502 -336 -920 -340
-928 -5 -9 -132 -95 -283 -193 l-274 -177 -894 0 -894 1 -144 177 c-80 97
-144 184 -144 192 1 8 152 428 336 933 l334 918 284 194 284 194 890 0 890 0
135 -181z"/>
<path d="M5500 4658 l-73 -53 -249 -684 -249 -684 29 -36 29 -36 691 -3 691
-2 63 41 63 40 243 667 c133 367 245 676 248 687 3 14 -7 36 -31 68 l-36 47
-673 0 -674 0 -72 -52z"/>
</g>
</svg>
