<?xml version="1.0" standalone="no"?>
<!DOCTYPE svg PUBLIC "-//W3C//DTD SVG 20010904//EN"
 "http://www.w3.org/TR/2001/REC-SVG-20010904/DTD/svg10.dtd">
<svg version="1.0" xmlns="http://www.w3.org/2000/svg"
 width="1871.000000pt" height="785.000000pt" viewBox="0 0 1871.000000 785.000000"
 preserveAspectRatio="xMidYMid meet">

<g transform="translate(0.000000,785.000000) scale(0.100000,-0.100000)"
fill="#000000" stroke="none">
<path d="M710 3925 l0 -1085 220 0 220 0 0 305 0 305 338 -1 337 0 265 -304
265 -304 293 0 292 -1 -262 296 c-145 163 -264 300 -266 305 -2 5 28 9 66 9
l70 0 175 148 176 147 0 471 1 472 -177 161 -178 160 -917 1 -918 0 0 -1085z
m1712 608 l48 -47 0 -267 0 -267 -44 -36 -44 -36 -616 0 -616 0 0 350 0 350
612 0 612 0 48 -47z"/>
<path d="M3800 4113 c-256 -493 -509 -982 -562 -1085 l-98 -188 246 2 247 3
128 245 128 245 723 3 724 2 129 -250 130 -250 243 0 c133 0 242 3 242 8 0 4
-251 491 -558 1082 l-557 1075 -350 3 -350 2 -465 -897z m1102 67 c114 -217
207 -398 207 -402 1 -5 -222 -8 -495 -8 -308 0 -494 4 -492 9 2 6 95 188 208
406 l205 396 80 -3 79 -3 208 -395z"/>
<path d="M6498 4849 l-178 -161 0 -322 0 -321 173 -173 173 -173 657 1 658 2
44 -41 45 -41 0 -143 -1 -142 -43 -32 -43 -33 -831 0 -832 0 0 -215 0 -215
918 0 917 1 178 150 177 150 0 333 0 334 -181 166 -180 166 -657 0 -656 0 -43
42 -43 42 0 131 0 131 48 47 48 47 832 0 832 0 0 215 0 215 -917 0 -918 0
-177 -161z"/>
<path d="M8770 4795 l0 -215 435 0 435 0 0 -870 0 -870 220 0 220 0 0 870 0
870 435 0 435 0 0 215 0 215 -1090 0 -1090 0 0 -215z"/>
<path d="M11260 3925 l0 -1085 220 0 220 0 0 305 0 305 338 0 337 -1 265 -304
265 -304 294 0 293 -1 -74 83 c-187 208 -458 516 -458 521 0 3 31 6 69 6 l69
0 176 148 175 147 1 471 0 472 -177 161 -178 161 -917 0 -918 0 0 -1085z
m1712 608 l48 -47 0 -267 0 -268 -44 -35 -43 -36 -617 0 -616 0 0 350 0 350
612 0 612 0 48 -47z"/>
<path d="M13900 3925 l0 -1085 985 0 985 0 0 215 0 215 -767 2 -768 3 -3 218
-2 217 485 0 485 0 0 215 0 215 -482 2 -483 3 0 215 0 215 763 3 762 2 0 215
0 215 -980 0 -980 0 0 -1085z"/>
<path d="M16412 4848 l-181 -163 -1 -772 0 -772 178 -151 177 -150 743 0 743
0 174 147 175 147 0 777 0 778 -177 160 -178 160 -736 1 -735 0 -182 -162z
m1527 -310 l50 -43 0 -577 1 -577 -44 -35 -43 -36 -575 0 -574 0 -42 36 -42
36 0 571 0 571 47 48 47 48 563 0 562 0 50 -42z"/>
<path d="M970 2114 c-70 -19 -152 -73 -190 -126 -38 -52 -70 -154 -70 -223 0
-69 32 -171 70 -223 114 -158 397 -188 551 -58 l29 24 -43 47 -42 46 -35 -24
c-127 -87 -295 -51 -362 76 -17 32 -22 59 -22 112 0 53 5 80 22 112 62 118
204 157 331 91 l61 -32 40 39 c38 37 39 40 22 58 -73 82 -229 117 -362 81z"/>
<path d="M1720 2115 c-110 -31 -181 -91 -229 -195 -22 -48 -26 -68 -26 -155 0
-93 2 -105 33 -167 39 -80 101 -138 181 -170 45 -17 76 -22 156 -22 129 0 197
25 271 98 71 72 97 142 97 261 0 70 -5 103 -23 150 -31 81 -105 154 -185 185
-78 29 -200 36 -275 15z m190 -125 c48 -13 106 -63 132 -113 16 -31 21 -60 21
-112 0 -52 -5 -81 -21 -112 -72 -140 -263 -167 -373 -54 -90 93 -92 232 -5
327 61 67 152 90 246 64z"/>
<path d="M4150 2114 c-70 -19 -152 -73 -190 -126 -38 -52 -70 -154 -70 -223 0
-69 32 -171 70 -223 114 -158 397 -188 551 -58 l29 24 -43 47 -42 46 -35 -24
c-127 -87 -295 -51 -362 76 -31 59 -31 165 0 224 62 118 204 157 331 91 l61
-32 40 39 c38 37 39 40 22 58 -73 82 -229 117 -362 81z"/>
<path d="M12679 2111 c-108 -34 -159 -96 -159 -191 0 -117 75 -175 266 -205
54 -9 113 -24 129 -34 26 -15 30 -23 30 -62 0 -42 -2 -45 -45 -67 -66 -34
-171 -28 -265 16 -37 18 -69 31 -70 30 -61 -86 -64 -95 -47 -111 92 -81 318
-111 438 -57 93 41 134 99 134 191 0 121 -75 177 -288 213 -90 16 -127 34
-144 71 -14 31 8 67 54 91 49 25 171 15 233 -19 26 -15 49 -27 51 -27 10 0 64
92 59 100 -11 18 -83 50 -147 65 -83 19 -160 18 -229 -4z"/>
<path d="M2380 1765 l0 -355 70 0 70 0 2 233 3 232 175 -232 175 -233 62 0 63
0 0 355 0 355 -70 0 -70 0 0 -236 0 -237 -176 237 -176 236 -64 0 -64 0 0
-355z"/>
<path d="M3210 1765 l0 -355 270 0 270 0 0 60 0 60 -200 0 -200 0 0 90 0 90
185 0 185 0 0 60 0 60 -185 0 -185 0 0 85 0 85 195 0 195 0 0 60 0 60 -265 0
-265 0 0 -355z"/>
<path d="M4630 2055 l0 -65 110 0 110 0 0 -290 0 -290 70 0 70 0 0 290 0 290
110 0 110 0 0 65 0 65 -290 0 -290 0 0 -65z"/>
<path d="M5360 1765 l0 -355 70 0 70 0 0 355 0 355 -70 0 -70 0 0 -355z"/>
<path d="M5772 1808 c72 -172 137 -332 146 -355 l16 -43 76 0 75 0 146 355
147 355 -77 0 -78 0 -104 -270 c-57 -148 -106 -270 -109 -270 -3 0 -14 24 -24
53 -10 28 -57 150 -104 270 l-85 217 -77 0 -78 0 130 -312z"/>
<path d="M6510 1765 l0 -355 70 0 70 0 0 355 0 355 -70 0 -70 0 0 -355z"/>
<path d="M6870 1765 l0 -357 193 4 c187 3 194 4 254 32 72 33 134 94 166 164
32 68 32 246 0 314 -32 70 -94 131 -166 164 -60 28 -67 29 -254 32 l-193 4 0
-357z m375 206 c81 -38 125 -111 125 -208 0 -67 -24 -125 -66 -165 -48 -45
-94 -58 -199 -58 l-95 0 0 225 0 225 98 0 c73 0 107 -5 137 -19z"/>
<path d="M7892 2103 c-8 -15 -113 -248 -288 -641 l-24 -53 77 3 76 3 28 65 27
65 185 3 184 2 29 -70 29 -70 77 0 76 0 -157 353 -158 352 -76 3 c-65 2 -77 0
-85 -15z m147 -280 c34 -78 61 -144 61 -147 0 -3 -56 -6 -125 -6 -69 0 -125 3
-125 8 0 11 122 293 126 290 2 -2 30 -67 63 -145z"/>
<path d="M8500 1765 l0 -357 193 4 c187 3 194 4 254 32 72 33 134 94 166 164
32 68 32 246 0 314 -32 70 -94 131 -166 164 -60 28 -67 29 -254 32 l-193 4 0
-357z m375 206 c81 -38 125 -111 125 -208 0 -67 -24 -125 -66 -165 -48 -45
-94 -58 -199 -58 l-95 0 0 225 0 225 98 0 c73 0 107 -5 137 -19z"/>
<path d="M9802 2103 c-8 -15 -113 -248 -288 -641 l-24 -53 77 3 76 3 28 65 27
65 185 3 184 2 29 -70 29 -70 77 0 76 0 -157 353 -158 352 -76 3 c-65 2 -77 0
-85 -15z m147 -280 c34 -78 61 -144 61 -147 0 -3 -56 -6 -125 -6 -69 0 -125 3
-125 8 0 11 122 293 126 290 2 -2 30 -67 63 -145z"/>
<path d="M10410 1765 l0 -355 255 0 255 0 0 65 0 65 -185 0 -185 0 0 290 0
290 -70 0 -70 0 0 -355z"/>
<path d="M11350 1765 l0 -355 70 0 70 0 0 355 0 355 -70 0 -70 0 0 -355z"/>
<path d="M11710 1765 l0 -355 70 0 70 0 2 233 3 232 175 -232 175 -233 62 0
63 0 0 355 0 355 -70 0 -70 0 0 -236 0 -237 -176 237 -176 236 -64 0 -64 0 0
-355z"/>
<path d="M13200 2055 l0 -65 110 0 110 0 0 -290 0 -290 70 0 70 0 0 290 0 290
110 0 110 0 0 65 0 65 -290 0 -290 0 0 -65z"/>
<path d="M14092 2103 c-8 -15 -113 -248 -288 -641 l-24 -53 77 3 76 3 28 65
27 65 185 3 184 2 29 -70 29 -70 77 0 76 0 -157 353 -158 352 -76 3 c-65 2
-77 0 -85 -15z m147 -280 c34 -78 61 -144 61 -147 0 -3 -56 -6 -125 -6 -69 0
-125 3 -125 8 0 11 122 293 126 290 2 -2 30 -67 63 -145z"/>
<path d="M14700 1765 l0 -355 70 0 70 0 2 233 3 232 175 -232 175 -233 62 0
63 0 0 355 0 355 -70 0 -70 0 0 -236 0 -237 -176 237 -176 236 -64 0 -64 0 0
-355z"/>
<path d="M15480 2055 l0 -65 110 0 110 0 0 -290 0 -290 70 0 70 0 0 290 0 290
110 0 110 0 0 65 0 65 -290 0 -290 0 0 -65z"/>
<path d="M16210 1765 l0 -355 270 0 270 0 0 60 0 60 -200 0 -200 0 0 90 0 90
185 0 185 0 0 60 0 60 -185 0 -185 0 0 85 0 85 195 0 195 0 0 60 0 60 -265 0
-265 0 0 -355z"/>
</g>
</svg>
